name Walk9.mot
datacolumns 19
datarows 25
range 2.40000000 2.52000000
endheader

                time	   L_ground_force_vx	   L_ground_force_vy	   L_ground_force_vz	   L_ground_force_px	   L_ground_force_py	   L_ground_force_pz	   R_ground_force_vx	   R_ground_force_vy	   R_ground_force_vz	   R_ground_force_px	   R_ground_force_py	   R_ground_force_pz	   L_ground_torque_x	   L_ground_torque_y	   L_ground_torque_z	   R_ground_torque_x	   R_ground_torque_y	   R_ground_torque_z	
          2.40000000	          5.29518496	         32.01863172	         -5.97886878	          0.00280551	          0.00000000	         -0.00081264	          0.00000000	          0.00000000	          0.00000000	          0.00000000	          0.00000000	          0.00000000	          0.00000000	          0.07824052	          0.00000000	          0.00000000	         -0.00000000	          0.00000000	
          2.40500000	          5.18506405	         54.16781880	         -9.05395793	         -0.07119088	          0.00000000	         -0.00881266	          0.00000000	          0.00000000	          0.00000000	          0.00000000	          0.00000000	          0.00000000	          0.00000000	          0.10994172	          0.00000000	          0.00000000	         -0.00000000	          0.00000000	
          2.41000000	          4.62652592	         79.53833096	        -12.08893830	         -0.13981196	          0.00000000	         -0.01640716	          0.00000000	          0.00000000	          0.00000000	          0.00000000	          0.00000000	          0.00000000	          0.00000000	          0.14262925	          0.00000000	          0.00000000	         -0.00000000	          0.00000000	
          2.41500000	          3.38691420	        107.40047253	        -14.83140781	         -0.19933999	          0.00000000	         -0.02321170	          0.00000000	          0.00000000	          0.00000000	          0.00000000	          0.00000000	          0.00000000	          0.00000000	          0.17347547	          0.00000000	          0.00000000	         -0.00000000	          0.00000000	
          2.42000000	          1.18817289	        136.98816779	        -17.03342670	         -0.24801276	          0.00000000	         -0.02904079	         -0.00000000	          0.00000000	          0.00000000	          0.00000000	          0.00000000	          0.00000000	          0.00000000	          0.19863842	          0.00000000	          0.00000000	         -0.00000000	          0.00000000	
          2.42500000	         -2.21651854	        167.81124351	        -18.47778440	         -0.28552740	          0.00000000	         -0.03387319	         -0.00000000	          0.00000000	          0.00000000	          0.00000000	          0.00000000	          0.00000000	          0.00000000	          0.21325014	          0.00000000	          0.00000000	         -0.00000000	          0.00000000	
          2.43000000	         -6.96128795	        199.67847401	        -18.98352231	         -0.31254921	          0.00000000	         -0.03779044	         -0.00000000	          0.00000000	          0.00000000	          0.00000000	          0.00000000	          0.00000000	          0.00000000	          0.21178795	          0.00000000	          0.00000000	          0.00000000	          0.00000000	
          2.43500000	        -13.03279356	        232.49562221	        -18.41291100	         -0.33031915	          0.00000000	         -0.04092378	         -0.00000000	          0.00000000	          0.00000000	          0.00000000	          0.00000000	          0.00000000	          0.00000000	          0.18901870	          0.00000000	          0.00000000	          0.00000000	          0.00000000	
          2.44000000	        -20.26473057	        266.08993789	        -16.68718587	         -0.34036173	          0.00000000	         -0.04341167	         -0.00000000	          0.00000000	          0.00000000	          0.00000000	          0.00000000	          0.00000000	          0.00000000	          0.14122471	          0.00000000	          0.00000000	          0.00000000	          0.00000000	
          2.44500000	        -28.35595921	        300.17382177	        -13.81188764	         -0.34428072	          0.00000000	         -0.04538330	         -0.00000000	          0.00000000	          0.00000000	          0.00000000	          0.00000000	          0.00000000	          0.00000000	          0.06858454	          0.00000000	          0.00000000	          0.00000000	          0.00000000	
          2.45000000	        -36.93517448	        334.35387747	         -9.89766979	         -0.34361834	          0.00000000	         -0.04695522	         -0.00000000	          0.00000000	          0.00000000	          0.00000000	          0.00000000	          0.00000000	          0.00000000	         -0.02234565	          0.00000000	          0.00000000	          0.00000000	          0.00000000	
          2.45500000	        -45.64520756	        368.07305595	         -5.14799038	         -0.33976810	          0.00000000	         -0.04822047	         -0.00000000	          0.00000000	         -0.00000000	         -0.00000000	          0.00000000	         -0.00000000	          0.00000000	         -0.11849430	          0.00000000	          0.00000000	          0.00000000	          0.00000000	
          2.46000000	        -54.19676346	        400.58016720	          0.17931179	         -0.33392470	          0.00000000	         -0.04924501	         -0.00000000	          0.00000000	         -0.00000000	         -0.00000000	          0.00000000	         -0.00000000	          0.00000000	         -0.20349119	          0.00000000	          0.00000000	          0.00000000	          0.00000000	
          2.46500000	        -62.38196553	        431.12043682	          5.81386195	         -0.32704424	          0.00000000	         -0.05007802	         -0.00000000	         -0.00000000	         -0.00000000	         -0.00000000	          0.00000000	         -0.00000000	          0.00000000	         -0.26116472	          0.00000000	          0.00000000	          0.00000000	          0.00000000	
          2.47000000	        -70.06420124	        459.23157022	         11.50843450	         -0.31984401	          0.00000000	         -0.05075718	         -0.00000000	         -0.00000000	         -0.00000000	         -0.00000000	          0.00000000	         -0.00000000	          0.00000000	         -0.27761924	          0.00000000	          0.00000000	          0.00000000	          0.00000000	
          2.47500000	        -77.16780960	        484.91218369	         17.06872903	         -0.31282903	          0.00000000	         -0.05130884	         -0.00000000	         -0.00000001	         -0.00000000	         -0.00000000	          0.00000000	         -0.00000000	          0.00000000	         -0.24458976	          0.00000000	          0.00000000	          0.00000000	          0.00000000	
          2.48000000	        -83.66623852	        508.59899377	         22.36772079	         -0.30632646	          0.00000000	         -0.05175202	         -0.00000000	         -0.00000002	         -0.00000000	         -0.00000000	          0.00000000	         -0.00000000	          0.00000000	         -0.16184093	          0.00000000	          0.00000000	          0.00000000	          0.00000000	
          2.48500000	        -89.55729409	        531.00504507	         27.33027890	         -0.30052419	          0.00000000	         -0.05210150	         -0.00000000	         -0.00000002	         -0.00000000	         -0.00000000	          0.00000000	         -0.00000000	          0.00000000	         -0.03488237	          0.00000000	          0.00000000	          0.00000000	          0.00000000	
          2.49000000	        -94.82911012	        552.90772492	         31.90506192	         -0.29551040	          0.00000000	         -0.05236686	          0.00000000	         -0.00000003	         -0.00000001	         -0.00000000	          0.00000000	         -0.00000000	          0.00000000	          0.12890448	          0.00000000	          0.00000000	          0.00000000	          0.00000000	
          2.49500000	        -99.43496403	        574.95261652	         36.04911518	         -0.29130560	          0.00000000	         -0.05255442	          0.00000000	         -0.00000004	         -0.00000001	         -0.00000000	          0.00000000	         -0.00000000	          0.00000000	          0.32190404	          0.00000000	          0.00000000	          0.00000000	          0.00000000	
          2.50000000	       -103.29141427	        597.53144364	         39.73225943	         -0.28788329	          0.00000000	         -0.05266967	          0.00000000	         -0.00000006	         -0.00000001	         -0.00000000	          0.00000000	         -0.00000000	          0.00000000	          0.53584324	          0.00000000	          0.00000000	         -0.00000000	          0.00000000	
          2.50500000	       -106.30314860	        620.76236780	         42.94621796	         -0.28518219	          0.00000000	         -0.05272006	          0.00000000	         -0.00000007	         -0.00000001	         -0.00000000	          0.00000000	         -0.00000000	          0.00000000	          0.76126445	          0.00000000	          0.00000000	         -0.00000000	          0.00000000	
          2.51000000	       -108.40107006	        644.53968423	         45.70213242	         -0.28311518	          0.00000000	         -0.05271589	          0.00000000	         -0.00000008	         -0.00000001	         -0.00000000	          0.00000000	         -0.00000000	          0.00000000	          0.98832553	          0.00000000	          0.00000000	         -0.00000000	          0.00000000	
          2.51500000	       -109.56360084	        668.59871123	         48.01606497	         -0.28157972	          0.00000000	         -0.05266851	          0.00000001	         -0.00000008	         -0.00000001	         -0.00000000	          0.00000000	         -0.00000000	          0.00000000	          1.20826210	          0.00000000	          0.00000000	         -0.00000000	          0.00000000	
          2.52000000	       -109.81711335	        692.57226653	         49.90043328	         -0.28046726	          0.00000000	         -0.05258941	          0.00000001	         -0.00000008	         -0.00000000	         -0.00000000	          0.00000000	         -0.00000000	          0.00000000	          1.41457989	          0.00000000	          0.00000000	         -0.00000000	          0.00000000	
